<svg width="220px" height="25px" viewBox="0 0 177 18" version="1.1" xmlns="http://www.w3.org/2000/svg" xmlns:xlink="http://www.w3.org/1999/xlink">

	<title>Payment bades</title>
	<g id="High-Fidelity" stroke="none" stroke-width="1" fill="none" fill-rule="evenodd">
		<g id="Shop-Mobile-—-Alt-2" transform="translate(-27.000000, -983.000000)" fill-rule="nonzero">
			<g id="Payment-bades" transform="translate(27.000000, 983.000000)">
				<g id="PayPal-(1)" transform="translate(118.000000, 2.000000)">
					<path d="M22.0355472,3.15789474 L18.8228082,3.15789474 C18.6029571,3.15789474 18.4159897,3.32745059 18.3816966,3.55784708 L17.0823201,12.3034385 C17.0564829,12.4759865 17.1823806,12.6315789 17.3472689,12.6315789 L18.8810593,12.6315789 C19.1009105,12.6315789 19.2878779,12.4620231 19.3221709,12.2311279 L19.6726174,9.87230671 C19.7064406,9.64141152 19.8938778,9.47185567 20.1132591,9.47185567 L21.1303055,9.47185567 C23.2466074,9.47185567 24.4680026,8.3847034 24.7869746,6.23034662 C24.9307234,5.28781553 24.7930816,4.54725538 24.3773375,4.02861394 C23.9207236,3.45910573 23.1108447,3.15789474 22.0355472,3.15789474 Z M22.4061936,6.35202788 C22.2305006,7.57582222 21.3496868,7.57582222 20.4979986,7.57582222 L20.0131987,7.57582222 L20.3533103,5.290309 C20.3735103,5.15217084 20.4862544,5.05043733 20.6177893,5.05043733 L20.8399892,5.05043733 C21.4201519,5.05043733 21.9674309,5.05043733 22.2502309,5.40151769 C22.4188774,5.61096904 22.4705518,5.92215391 22.4061936,6.35202788 Z" id="Shape" fill="#253B80"></path>
					<path d="M31.5541421,6.46223705 L29.9709013,6.46223705 C29.8360237,6.46223705 29.7195166,6.5592348 29.698729,6.69094252 L29.6286313,7.12648141 L29.5179253,6.96862234 C29.1751718,6.4793543 28.4108653,6.31578947 27.6480091,6.31578947 C25.8984676,6.31578947 24.4041784,7.61907781 24.1131522,9.44729512 C23.9618378,10.3592641 24.1769652,11.2312929 24.7029396,11.8394307 C25.185405,12.3985942 25.8757463,12.6315789 26.6970978,12.6315789 C28.1067864,12.6315789 28.8884964,11.7400556 28.8884964,11.7400556 L28.8179153,12.1727416 C28.7913265,12.3382083 28.9208864,12.4865578 29.0896043,12.4865578 L30.5157296,12.4865578 C30.7424593,12.4865578 30.9338985,12.3248949 30.9696725,12.1047481 L31.8253477,6.77510233 C31.8524199,6.61106202 31.7233434,6.46223705 31.5541421,6.46223705 Z M29.3472737,9.49294112 C29.1945091,10.3825626 28.4766121,10.9797644 27.5609913,10.9797644 C27.1012472,10.9797644 26.7338387,10.8347433 26.4979237,10.5599163 C26.2639425,10.2869913 26.1749909,9.89852483 26.2494395,9.4658388 C26.392052,8.58382499 27.1220348,7.96712854 28.023636,7.96712854 C28.4732281,7.96712854 28.8387029,8.1140516 29.0794522,8.39125594 C29.3206849,8.67131315 29.4164045,9.06215701 29.3472737,9.49294112 Z" id="Shape" fill="#253B80"></path>
					<path d="M40.0885035,6.31578947 L38.4745081,6.31578947 C38.320514,6.31578947 38.175838,6.387799 38.088542,6.50827648 L35.8624935,9.59453097 L34.9189119,6.62875396 C34.8595702,6.44319095 34.6776217,6.31578947 34.4716424,6.31578947 L32.8856013,6.31578947 C32.6928634,6.31578947 32.5589768,6.4930437 32.6202802,6.66383552 L34.3980783,11.5743314 L32.7267029,13.7950867 C32.5952684,13.970033 32.7276837,14.2105263 32.9547515,14.2105263 L34.5667852,14.2105263 C34.7197985,14.2105263 34.8630032,14.1403632 34.9498088,14.0221937 L40.3180234,6.72892106 C40.4465153,6.55443643 40.3145904,6.31578947 40.0885035,6.31578947 Z" id="Path" fill="#253B80"></path>
					<path d="M45.3252424,3.15789474 L42.1118904,3.15789474 C41.8924993,3.15789474 41.7055236,3.32745059 41.671229,3.55784708 L40.3717946,12.3034385 C40.3459562,12.4759865 40.4718595,12.6315789 40.6358156,12.6315789 L42.2847725,12.6315789 C42.4379235,12.6315789 42.5689945,12.5128898 42.5929537,12.3513131 L42.9617375,9.87230671 C42.9955622,9.64141152 43.1830078,9.47185567 43.4023989,9.47185567 L44.4190208,9.47185567 C46.5358868,9.47185567 47.7568666,8.3847034 48.0763227,6.23034662 C48.2205477,5.28781553 48.0819601,4.54725538 47.6661975,4.02861394 C47.210033,3.45910573 46.4005878,3.15789474 45.3252424,3.15789474 Z M45.6959054,6.35202788 C45.5206743,7.57582222 44.6398213,7.57582222 43.7876253,7.57582222 L43.3032736,7.57582222 L43.6438701,5.290309 C43.664071,5.15217084 43.7758806,5.05043733 43.9078911,5.05043733 L44.130101,5.05043733 C44.7098197,5.05043733 45.2575929,5.05043733 45.5404054,5.40151769 C45.7090594,5.61096904 45.7602664,5.92215391 45.6959054,6.35202788 Z" id="Shape" fill="#179BD7"></path>
					<path d="M54.8419133,6.46223705 L53.259562,6.46223705 C53.1237109,6.46223705 53.0081649,6.5592348 52.9878597,6.69094252 L52.9177586,7.12648141 L52.8065638,6.96862234 C52.4637935,6.4793543 51.6999331,6.31578947 50.9370396,6.31578947 C49.1874125,6.31578947 47.6935336,7.61907781 47.4024931,9.44729512 C47.2516548,10.3592641 47.4658258,11.2312929 47.9918259,11.8394307 C48.4752818,12.3985942 49.16469,12.6315789 49.9860817,12.6315789 C51.3958393,12.6315789 52.1775876,11.7400556 52.1775876,11.7400556 L52.107003,12.1727416 C52.0804129,12.3382083 52.2099791,12.4865578 52.3796721,12.4865578 L53.8053838,12.4865578 C54.0311577,12.4865578 54.2235732,12.3248949 54.2588654,12.1047481 L55.1150659,6.77510233 C55.1411726,6.61106202 55.0116064,6.46223705 54.8419133,6.46223705 Z M52.6349369,9.49294112 C52.4831317,10.3825626 51.7642327,10.9797644 50.8485671,10.9797644 C50.3897674,10.9797644 50.021374,10.8347433 49.7854475,10.5599163 C49.5514548,10.2869913 49.4634658,9.89852483 49.5369511,9.4658388 C49.6805375,8.58382499 50.4095891,7.96712854 51.3112345,7.96712854 C51.7608485,7.96712854 52.1263412,8.1140516 52.3671023,8.39125594 C52.6093137,8.67131315 52.705038,9.06215701 52.6349369,9.49294112 Z" id="Shape" fill="#179BD7"></path>
					<path d="M57.1246211,3.39825245 L55.8978752,12.3034558 C55.8738385,12.4759947 55.9909627,12.6315789 56.1434866,12.6315789 L57.3767879,12.6315789 C57.5817554,12.6315789 57.7556938,12.462032 57.78716,12.231149 L58.9968617,3.48651659 C59.0208984,3.31397765 58.9037741,3.15789474 58.7512503,3.15789474 L57.3702325,3.15789474 C57.2483008,3.1583934 57.1434134,3.26012156 57.1246211,3.39825245 Z" id="Path" fill="#179BD7"></path>
					<path d="M3.64729509,14.2105263 L3.88928094,12.625573 L3.35024937,12.6126911 L0.776315789,12.6126911 L2.56506776,0.917338672 C2.57062002,0.882032668 2.58866485,0.849112205 2.61503807,0.825733905 C2.64141129,0.802355605 2.67518752,0.789473684 2.71035181,0.789473684 L7.05036565,0.789473684 C8.49117621,0.789473684 9.48549281,1.09863977 10.0046288,1.70886111 C10.2480027,1.99512601 10.4030032,2.29427283 10.4779587,2.62347746 C10.5566156,2.96890377 10.5580037,3.38160234 10.4811975,3.88495145 L10.4756452,3.92168878 L10.4756452,4.24421389 L10.7190191,4.38639213 C10.9239899,4.49851255 11.0868561,4.62685464 11.2117819,4.77380396 C11.4199915,5.01856044 11.5546337,5.32963497 11.6115444,5.69843958 C11.6703057,6.07774057 11.6508729,6.52908489 11.5546337,7.04006773 C11.4435886,7.62786499 11.2640656,8.13980205 11.0216171,8.55870301 C10.7986015,8.94468352 10.514511,9.2648231 10.1772114,9.51291934 C9.85518056,9.74861077 9.47253755,9.92752633 9.03992423,10.0420323 C8.62072886,10.1546298 8.14277211,10.2114057 7.61854656,10.2114057 L7.28078429,10.2114057 C7.03926113,10.2114057 6.80467829,10.301102 6.62052845,10.4618875 C6.43591592,10.6260127 6.31376628,10.8502535 6.27628855,11.0954871 L6.25084071,11.2381425 L5.82331696,14.0316108 L5.80388406,14.134189 C5.79879449,14.1666324 5.79000342,14.182854 5.77704815,14.1938275 C5.76548095,14.2038468 5.74882418,14.2105263 5.7326301,14.2105263 L3.64729509,14.2105263 Z" id="Path" fill="#253B80"></path>
					<path d="M11.2061945,3.94736842 L11.2061945,3.94736842 L11.2061945,3.94736842 C11.1927408,4.03525918 11.177365,4.12511398 11.1600673,4.21742384 C10.565699,7.33582735 8.53225773,8.41310295 5.93519961,8.41310295 L4.61288621,8.41310295 C4.29528114,8.41310295 4.02764721,8.64878767 3.97815656,8.96892609 L3.97815656,8.96892609 L3.97815656,8.96892609 L3.30114363,13.3565901 L3.1094274,14.600318 C3.07723445,14.8104702 3.23579674,15 3.44336919,15 L5.78864962,15 C6.06637387,15 6.30229534,14.7937759 6.34602009,14.5139003 L6.3690837,14.3921298 L6.81065565,11.5285604 L6.83900467,11.3714373 C6.88224893,11.0905796 7.11865089,10.8843555 7.39637514,10.8843555 L7.74713415,10.8843555 C10.0193798,10.8843555 11.7981604,9.94161659 12.3180525,7.2135659 C12.5352348,6.07393205 12.4227997,5.12235498 11.8481316,4.45310856 C11.6741935,4.25130351 11.4584527,4.08386916 11.2061945,3.94736842 Z" id="Path" fill="#179BD7"></path>
					<path d="M10.2674124,3.37722827 C10.1796298,3.35005857 10.0890605,3.32535885 9.99616888,3.3031291 C9.90281281,3.28139335 9.80713446,3.26212756 9.70866936,3.24533175 C9.3640415,3.18605242 8.98643713,3.15789474 8.58189418,3.15789474 L5.16719877,3.15789474 C5.08313186,3.15789474 5.00324508,3.17814851 4.93171855,3.2147041 C4.77426728,3.29522519 4.65722385,3.45379741 4.62889191,3.64793722 L3.90247956,8.54144613 L3.88157895,8.68421053 C3.92941812,8.36212615 4.18812125,8.12500882 4.495128,8.12500882 L5.77331649,8.12500882 C8.28371213,8.12500882 10.2492985,7.04069103 10.8238331,3.90382634 C10.841018,3.81095539 10.8554162,3.7205544 10.8684211,3.6321294 C10.7230457,3.55012632 10.5655944,3.47997911 10.3960672,3.42020578 C10.354266,3.40538595 10.3110714,3.39106011 10.2674124,3.37722827 Z" id="Path" fill="#222D65"></path>
					<path d="M4.50692599,3.62469349 C4.53552208,3.43966887 4.65365674,3.28854189 4.81257599,3.2122722 C4.88523819,3.17743296 4.965401,3.15813014 5.05025169,3.15813014 L8.49678366,3.15813014 C8.90509831,3.15813014 9.28622325,3.18496577 9.6340642,3.24146184 C9.73344733,3.25746905 9.83001773,3.27583028 9.92424419,3.2965455 C10.0180019,3.31773153 10.1094156,3.34127155 10.1980166,3.36716558 C10.2420827,3.380348 10.28568,3.39400122 10.3283398,3.40765443 C10.4994475,3.4646213 10.6583668,3.53194578 10.8050975,3.60962787 C10.9776116,2.50465896 10.8036911,1.75231967 10.2087987,1.07107127 C9.55296382,0.32108598 8.36927323,0 6.85461806,0 L2.45738331,0 C2.14798299,0 1.88405515,0.225984267 1.83623874,0.533417031 L0.00468264426,12.1927928 C-0.0314140589,12.4234851 0.145787939,12.6315789 0.377369385,12.6315789 L3.09212274,12.6315789 L3.773741,8.28844381 L4.50692599,3.62469349 Z" id="Path" fill="#253B80"></path>
				</g>
				<g id="amex-icon">
					<path d="M105.977021,17.0357143 C105.977021,17.5637755 105.540427,18 105.011917,18 L78.126869,18 C77.5983595,18 77.1617647,17.5637755 77.1617647,17.0357143 L77.1617647,0.964285714 C77.1617647,0.43622449 77.5983595,0 78.126869,0 L105.034896,0 C105.563405,0 106,0.43622449 106,0.964285714 L105.977021,17.0357143 L105.977021,17.0357143 Z" id="Path" fill="#F5F5F5"></path>
					<g id="Layer_2_1_" transform="translate(82.617647, 3.130435)">
						<g id="Layer_1-2_1_">
							<g id="_Group__2_">
								<rect id="Rectangle" fill="#FF5F00" x="6.8892396" y="1.26598465" width="4.99583931" height="9.04603581"></rect>
								<path d="M7.20860832,5.80051151 C7.20860832,4.02813299 8.00703013,2.37084399 9.37575323,1.26598465 C6.8892396,-0.690537084 3.30774749,-0.253196931 1.3687231,2.23273657 C-0.570301291,4.71867008 -0.13687231,8.35549872 2.32682927,10.3120205 C4.40272597,11.9462916 7.29985653,11.9462916 9.37575323,10.3120205 C8.00703013,9.23017903 7.20860832,7.57289003 7.20860832,5.80051151 Z" id="_Path__2_" fill="#EB001B"></path>
								<path d="M18.6146341,5.80051151 C18.6146341,8.9769821 16.0596844,11.5549872 12.9116212,11.5549872 C11.6341463,11.5549872 10.4022956,11.1176471 9.39856528,10.3350384 C11.8850789,8.37851662 12.2956958,4.76470588 10.3566714,2.25575448 C10.0829268,1.88746803 9.76355811,1.56521739 9.39856528,1.28900256 C11.8850789,-0.667519182 15.466571,-0.253196931 17.4055954,2.25575448 C18.1812052,3.2685422 18.6146341,4.51150895 18.6146341,5.80051151 L18.6146341,5.80051151 Z" id="Path" fill="#F79E1B"></path>
							</g>
						</g>
					</g>
					<g id="Group">
						<path d="M0.952299465,0 L23.7848128,0 C24.3063102,0 24.7371123,0.432911392 24.7371123,0.956962025 L24.7371123,16.9063291 C24.7371123,17.4303797 24.3063102,17.8632911 23.7848128,17.8632911 L1.54181818,17.8632911 C0.680213904,17.8632911 0,17.156962 0,16.3139241 L0,0.956962025 C0,0.432911392 0.430802139,0 0.952299465,0 Z" id="Path" fill="#26A6D1"></path>
						<path d="M3.44641711,6.03797468 L0.838930481,11.8253165 L3.94524064,11.8253165 L4.33069519,10.9139241 L5.21497326,10.9139241 L5.60042781,11.8253165 L9.02417112,11.8253165 L9.02417112,11.1189873 L9.31893048,11.8253165 L11.1101604,11.8253165 L11.4049198,11.0962025 L11.4049198,11.8253165 L18.524492,11.8253165 L19.3860963,10.9367089 L20.2023529,11.8253165 L23.8528342,11.8253165 L21.2680214,8.95443038 L23.875508,6.03797468 L20.2703743,6.03797468 L19.4314439,6.92658228 L18.637861,6.03797468 L10.9060963,6.03797468 L10.2258824,7.51898734 L9.54566845,6.03797468 L6.43935829,6.03797468 L6.43935829,6.72151899 L6.09925134,6.03797468 C6.09925134,6.03797468 3.44641711,6.03797468 3.44641711,6.03797468 Z M4.05860963,6.85822785 L5.57775401,6.85822785 L7.30096257,10.7772152 L7.30096257,6.85822785 L8.95614973,6.85822785 L10.2939037,9.66075949 L11.5182888,6.85822785 L13.1734759,6.85822785 L13.1734759,11.0050633 L12.1758289,11.0050633 L12.1758289,7.74683544 L10.7020321,11.0050633 L9.79508021,11.0050633 L8.32128342,7.74683544 L8.32128342,11.0050633 L6.25796791,11.0050633 L5.87251337,10.0708861 L3.76385027,10.0708861 L3.37839572,11.0050633 L2.22203209,11.0050633 C2.22203209,11.0050633 4.05860963,6.85822785 4.05860963,6.85822785 Z M14.0804278,6.85822785 L18.1617112,6.85822785 L19.4087701,8.22531646 L20.7011765,6.85822785 L21.9482353,6.85822785 L20.0436364,8.95443038 L21.9482353,11.0050633 L20.6331551,11.0050633 L19.3860963,9.63797468 L18.0936898,11.0050633 L14.0804278,11.0050633 L14.0804278,6.85822785 L14.0804278,6.85822785 Z M4.78417112,7.56455696 L4.08128342,9.2278481 L5.48705882,9.2278481 L4.78417112,7.56455696 Z M15.1007487,7.72405063 L15.1007487,8.47594937 L17.3227807,8.47594937 L17.3227807,9.31898734 L15.1007487,9.31898734 L15.1007487,10.1392405 L17.5948663,10.1392405 L18.7512299,8.93164557 L17.6402139,7.72405063 L15.1007487,7.72405063 L15.1007487,7.72405063 Z" id="Shape" fill="#FFFFFF"></path>
					</g>
					<path d="M64.6681978,17.0357143 C64.6681978,17.5637755 64.231603,18 63.7030935,18 L36.8180455,18 C36.289536,18 35.8529412,17.5637755 35.8529412,17.0357143 L35.8529412,0.964285714 C35.8529412,0.43622449 36.289536,0 36.8180455,0 L63.7260722,0 C64.2545817,0 64.6911765,0.43622449 64.6911765,0.964285714 L64.6911765,17.0357143 L64.6681978,17.0357143 Z" id="Path" fill="#3957A7"></path>
					<g id="Group" transform="translate(38.191176, 4.695652)" fill="#FFFFFF">
						<polygon id="Path" points="10.4776251 7.53540373 8.53565146 7.53540373 9.75503024 0.156521739 11.6970038 0.156521739"></polygon>
						<path d="M6.90981308,0.156521739 L5.05816383,5.23229814 L4.83235294,4.13664596 L4.83235294,4.13664596 L4.17750137,0.804968944 C4.17750137,0.804968944 4.08717702,0.134161491 3.25167675,0.134161491 L0.180648708,0.134161491 L0.15806762,0.268322981 C0.15806762,0.268322981 1.08389225,0.469565217 2.19036559,1.11801242 L3.88394722,7.53540373 L5.91624519,7.53540373 L9.00985432,0.134161491 L6.90981308,0.156521739 L6.90981308,0.156521739 Z" id="Path"></path>
						<path d="M22.1746289,7.53540373 L23.9585349,7.53540373 L22.4004398,0.134161491 L20.8423447,0.134161491 C20.1197499,0.134161491 19.9391012,0.693167702 19.9391012,0.693167702 L17.0487218,7.53540373 L19.0810198,7.53540373 L19.4874794,6.43975155 L21.948818,6.43975155 L22.1746289,7.53540373 Z M20.0520066,4.91925466 L21.0681556,2.14658385 L21.6326828,4.91925466 L20.0520066,4.91925466 Z" id="Shape"></path>
						<path d="M17.2067894,1.92298137 L17.4777625,0.335403727 C17.4777625,0.335403727 16.6196811,0.0223602484 15.7390187,0.0223602484 C14.7680319,0.0223602484 12.4873419,0.447204969 12.4873419,2.45962733 C12.4873419,4.36024845 15.1744915,4.3826087 15.1744915,5.38881988 C15.1744915,6.39503106 12.758315,6.21614907 11.9679769,5.59006211 L11.6744228,7.2447205 C11.6744228,7.2447205 12.5325041,7.66956522 13.8647883,7.66956522 C15.1970726,7.66956522 17.1842084,6.99875776 17.1842084,5.14285714 C17.1842084,3.21987578 14.4744777,3.04099379 14.4744777,2.2136646 C14.4744777,1.36397516 16.3712892,1.4757764 17.2067894,1.92298137 Z" id="Path"></path>
					</g>
					<path d="M42.8676471,9.39130435 L42.2124893,6.13407821 C42.2124893,6.13407821 42.1221228,5.47826087 41.2862319,5.47826087 L38.2137681,5.47826087 L38.1911765,5.60942434 C38.1911765,5.60942434 39.6596334,5.91547243 41.0829071,7.00850134 C42.4158142,8.07966966 42.8676471,9.39130435 42.8676471,9.39130435 Z" id="Path" fill="#F9A533"></path>
				</g>
			</g>
		</g>
	</g>
</svg>
